{
  "accessors": [
    {
      "bufferView": 2,
      "componentType": 5126,
      "count": 5183,
      "max": [
        13019.134765625,
        13909.3740234375,
        57.997211456298828
      ],
      "min": [
        -13019.125,
        -13909.3740234375,
        -4095.8623046875
      ],
      "type": "VEC3"
    },
    {
      "bufferView": 2,
      "byteOffset": 62196,
      "componentType": 5126,
      "count": 5183,
      "max": [
        0.47103634476661682,
        0.50976818799972534,
        0.99999731779098511
      ],
      "min": [
        -0.45396831631660461,
        -0.50246816873550415,
        0.81847584247589111
      ],
      "type": "VEC3"
    },
    {
      "bufferView": 3,
      "componentType": 5126,
      "count": 5183,
      "max": [
        1,
        0.024866199120879173,
        0.47761508822441101,
        1
      ],
      "min": [
        0.87856674194335938,
        -0.053673133254051208,
        -0.47459155321121216,
        1
      ],
      "type": "VEC4"
    },
    {
      "bufferView": 1,
      "componentType": 5126,
      "count": 5183,
      "max": [
        1,
        1
      ],
      "min": [
        2.9802322387695312e-08,
        0
      ],
      "type": "VEC2"
    },
    {
      "bufferView": 0,
      "componentType": 5125,
      "count": 30252,
      "max": [
        5182
      ],
      "min": [
        0
      ],
      "type": "SCALAR"
    },
    {
      "bufferView": 2,
      "byteOffset": 124392,
      "componentType": 5126,
      "count": 572,
      "max": [
        13019.134765625,
        13909.3740234375,
        -1694.1546630859375
      ],
      "min": [
        -13019.125,
        -13909.3740234375,
        -5298.79931640625
      ],
      "type": "VEC3"
    },
    {
      "bufferView": 2,
      "byteOffset": 131256,
      "componentType": 5126,
      "count": 572,
      "max": [
        1,
        1,
        0
      ],
      "min": [
        -1,
        -1,
        -1
      ],
      "type": "VEC3"
    },
    {
      "bufferView": 3,
      "byteOffset": 82928,
      "componentType": 5126,
      "count": 572,
      "max": [
        1,
        1,
        4.1459730937276618e-07,
        1
      ],
      "min": [
        -1,
        -1,
        -2.9360899134189822e-07,
        1
      ],
      "type": "VEC4"
    },
    {
      "bufferView": 1,
      "byteOffset": 41464,
      "componentType": 5126,
      "count": 572,
      "max": [
        5.1364569664001465,
        5.1364588737487793
      ],
      "min": [
        -4.1364588737487793,
        -4.1364588737487793
      ],
      "type": "VEC2"
    },
    {
      "bufferView": 0,
      "byteOffset": 121008,
      "componentType": 5125,
      "count": 1686,
      "max": [
        571
      ],
      "min": [
        0
      ],
      "type": "SCALAR"
    },
    {
      "bufferView": 2,
      "byteOffset": 138120,
      "componentType": 5126,
      "count": 8,
      "max": [
        10000,
        10000,
        0
      ],
      "min": [
        -10000,
        -10000,
        0
      ],
      "type": "VEC3"
    },
    {
      "bufferView": 2,
      "byteOffset": 138216,
      "componentType": 5126,
      "count": 8,
      "max": [
        0,
        0,
        1
      ],
      "min": [
        0,
        0,
        1
      ],
      "type": "VEC3"
    },
    {
      "bufferView": 3,
      "byteOffset": 92080,
      "componentType": 5126,
      "count": 8,
      "max": [
        1,
        1.6098408650577767e-07,
        0,
        1
      ],
      "min": [
        1,
        -1.7985303202294745e-06,
        0,
        1
      ],
      "type": "VEC4"
    },
    {
      "bufferView": 1,
      "byteOffset": 46040,
      "componentType": 5126,
      "count": 8,
      "max": [
        1,
        1
      ],
      "min": [
        0,
        0
      ],
      "type": "VEC2"
    },
    {
      "bufferView": 0,
      "byteOffset": 127752,
      "componentType": 5125,
      "count": 24,
      "max": [
        7
      ],
      "min": [
        0
      ],
      "type": "SCALAR"
    },
    {
      "bufferView": 2,
      "byteOffset": 138312,
      "componentType": 5126,
      "count": 419,
      "max": [
        1240.3515625,
        557,
        0
      ],
      "min": [
        -1240.3515625,
        -9,
        0
      ],
      "type": "VEC3"
    },
    {
      "bufferView": 2,
      "byteOffset": 143340,
      "componentType": 5126,
      "count": 419,
      "max": [
        0,
        0,
        1
      ],
      "min": [
        0,
        0,
        1
      ],
      "type": "VEC3"
    },
    {
      "bufferView": 3,
      "byteOffset": 92208,
      "componentType": 5126,
      "count": 419,
      "max": [
        1,
        3.2349897082895041e-05,
        0,
        1
      ],
      "min": [
        1,
        -3.1913976272335276e-05,
        0,
        1
      ],
      "type": "VEC4"
    },
    {
      "bufferView": 1,
      "byteOffset": 46104,
      "componentType": 5126,
      "count": 419,
      "max": [
        0.14238134026527405,
        0.046952515840530396
      ],
      "min": [
        0.018346220254898071,
        0.018652498722076416
      ],
      "type": "VEC2"
    },
    {
      "bufferView": 0,
      "byteOffset": 127848,
      "componentType": 5125,
      "count": 1239,
      "max": [
        418
      ],
      "min": [
        0
      ],
      "type": "SCALAR"
    }
  ],
  "asset": {
    "extras": {
      "author": "SebastianSosnowski (https://sketchfab.com/SebastianSosnowski)",
      "license": "CC-BY-4.0 (http://creativecommons.org/licenses/by/4.0/)",
      "source": "https://sketchfab.com/models/020298db58f54201892863c3cb07a32b",
      "title": "Moon - Gagarin crater"
    },
    "generator": "Sketchfab-3.47.2",
    "version": "2.0"
  },
  "bufferViews": [
    {
      "buffer": 0,
      "byteLength": 132804,
      "byteOffset": 0,
      "name": "floatBufferViews",
      "target": 34963
    },
    {
      "buffer": 0,
      "byteLength": 49456,
      "byteOffset": 132804,
      "byteStride": 8,
      "name": "floatBufferViews",
      "target": 34962
    },
    {
      "buffer": 0,
      "byteLength": 148368,
      "byteOffset": 182260,
      "byteStride": 12,
      "name": "floatBufferViews",
      "target": 34962
    },
    {
      "buffer": 0,
      "byteLength": 98912,
      "byteOffset": 330628,
      "byteStride": 16,
      "name": "floatBufferViews",
      "target": 34962
    }
  ],
  "buffers": [
    {
      "byteLength": 429540,
      "uri": "scene.bin"
    }
  ],
  "images": [
    {
      "uri": "textures/material_1_normal.png"
    },
    {
      "uri": "textures/material_1_metallicRoughness.png"
    },
    {
      "uri": "textures/material_1_baseColor.jpeg"
    }
  ],
  "materials": [
    {
      "doubleSided": false,
      "name": "material_1",
      "normalTexture": {
        "index": 0,
        "scale": 1,
        "texCoord": 0
      },
      "pbrMetallicRoughness": {
        "baseColorFactor": [
          1,
          1,
          1,
          1
        ],
        "baseColorTexture": {
          "index": 2,
          "texCoord": 0
        },
        "metallicFactor": 0,
        "metallicRoughnessTexture": {
          "index": 1,
          "texCoord": 0
        },
        "roughnessFactor": 1
      }
    },
    {
      "doubleSided": false,
      "name": "material_2",
      "pbrMetallicRoughness": {
        "baseColorFactor": [
          0,
          0,
          0,
          1
        ],
        "metallicFactor": 1,
        "roughnessFactor": 1
      }
    },
    {
      "alphaMode": "BLEND",
      "doubleSided": false,
      "emissiveFactor": [
        1,
        1,
        1
      ],
      "name": "material",
      "pbrMetallicRoughness": {
        "baseColorFactor": [
          1,
          1,
          1,
          0.056212130499999999
        ],
        "metallicFactor": 0,
        "roughnessFactor": 1
      }
    }
  ],
  "meshes": [
    {
      "name": "GagarinLP_1 - _0",
      "primitives": [
        {
          "attributes": {
            "NORMAL": 1,
            "POSITION": 0,
            "TANGENT": 2,
            "TEXCOORD_0": 3
          },
          "indices": 4,
          "material": 0,
          "mode": 4
        }
      ]
    },
    {
      "name": "GagarinLP_2 - _0",
      "primitives": [
        {
          "attributes": {
            "NORMAL": 6,
            "POSITION": 5,
            "TANGENT": 7,
            "TEXCOORD_0": 8
          },
          "indices": 9,
          "material": 1,
          "mode": 4
        }
      ]
    },
    {
      "name": "Plane2000_3 - _0",
      "primitives": [
        {
          "attributes": {
            "NORMAL": 11,
            "POSITION": 10,
            "TANGENT": 12,
            "TEXCOORD_0": 13
          },
          "indices": 14,
          "material": 2,
          "mode": 4
        }
      ]
    },
    {
      "name": "Text_2000k_3 - _0",
      "primitives": [
        {
          "attributes": {
            "NORMAL": 16,
            "POSITION": 15,
            "TANGENT": 17,
            "TEXCOORD_0": 18
          },
          "indices": 19,
          "material": 2,
          "mode": 4
        }
      ]
    }
  ],
  "nodes": [
    {
      "children": [
        1
      ],
      "name": "RootNode (gltf orientation matrix)",
      "rotation": [
        -0.70710678118654746,
        -0,
        -0,
        0.70710678118654757
      ]
    },
    {
      "children": [
        2
      ],
      "name": "RootNode (model correction matrix)"
    },
    {
      "children": [
        3
      ],
      "matrix": [
        1,
        0,
        0,
        0,
        0,
        0,
        1,
        0,
        0,
        -1,
        0,
        0,
        0,
        0,
        0,
        1
      ],
      "name": "39097506c0054c8aa17ca9f4dfd17ecc.fbx"
    },
    {
      "children": [
        4,
        7,
        9
      ],
      "name": "RootNode"
    },
    {
      "children": [
        5,
        6
      ],
      "matrix": [
        1,
        0,
        0,
        0,
        0,
        2.2204460492503131e-16,
        -1,
        0,
        0,
        1,
        2.2204460492503131e-16,
        0,
        0,
        0,
        0,
        1
      ],
      "name": "GagarinLP"
    },
    {
      "mesh": 0,
      "name": "GagarinLP_1 - _0"
    },
    {
      "mesh": 1,
      "name": "GagarinLP_2 - _0"
    },
    {
      "children": [
        8
      ],
      "matrix": [
        1,
        0,
        0,
        0,
        0,
        2.2204460492503131e-16,
        -1,
        0,
        0,
        1,
        2.2204460492503131e-16,
        0,
        0,
        0,
        0,
        1
      ],
      "name": "Plane2000"
    },
    {
      "mesh": 2,
      "name": "Plane2000_3 - _0"
    },
    {
      "children": [
        10
      ],
      "matrix": [
        1,
        0,
        0,
        0,
        0,
        2.2204460492503131e-16,
        -1,
        0,
        0,
        1,
        2.2204460492503131e-16,
        0,
        -8392.7236328125,
        0,
        9617.953125,
        1
      ],
      "name": "Text_2000k"
    },
    {
      "mesh": 3,
      "name": "Text_2000k_3 - _0"
    }
  ],
  "samplers": [
    {
      "magFilter": 9729,
      "minFilter": 9987,
      "wrapS": 10497,
      "wrapT": 10497
    }
  ],
  "scene": 0,
  "scenes": [
    {
      "name": "OSG_Scene",
      "nodes": [
        0
      ]
    }
  ],
  "textures": [
    {
      "sampler": 0,
      "source": 0
    },
    {
      "sampler": 0,
      "source": 1
    },
    {
      "sampler": 0,
      "source": 2
    }
  ]
}

